HIERARCHY
ROOT Hips
{
	OFFSET 0.00000 0.00000 0.00000
	CHANNELS 6 Xposition Yposition Zposition Yrotation Zrotation Xrotation 
	JOINT Lumbar
	{
		OFFSET 0 0 0
		CHANNELS 3 Zrotation Xrotation Yrotation
		JOINT Neck
		{
			OFFSET 0.00 0.2701 0.00
			CHANNELS 3 Zrotation Xrotation Yrotation
			End Site
			{
				OFFSET 0.00 0.1379 0.00
			}
		}
		JOINT RightShoulder
		{
			OFFSET 0.0119 0.2289 0.1181
			CHANNELS 3 Zrotation Xrotation Yrotation
			JOINT RightElbow
			{
				OFFSET 0.00 -0.1475 0.00
				CHANNELS 2 Zrotation Yrotation
				JOINT RightWrist
				{
					OFFSET 0.00 -0.1605 0.00
					CHANNELS 2 Zrotation Xrotation
					End Site
					{
						OFFSET 0.0040 -0.1068 0.0006
					}
				}
			}
		}
		JOINT LeftShoulder
		{
			OFFSET 0.0119 0.2289 -0.1181
			CHANNELS 3 Zrotation Xrotation Yrotation
			JOINT LeftElbow
			{
				OFFSET 0.00 -0.1475 0.00
				CHANNELS 2 Zrotation Yrotation
				JOINT LeftWrist
				{
					OFFSET 0.00 -0.1605 0.00
					CHANNELS 2 Zrotation Xrotation
					End Site
					{
						OFFSET 0.0040 -0.1068 -0.0006
					}
				}
			}
		}
	}
	JOINT RightHip
	{
		OFFSET 0.0316 -0.0424 0.0458
		CHANNELS 3 Zrotation Xrotation Yrotation
		JOINT RightKnee
		{
			OFFSET 0.00 -0.2438 0.00
			CHANNELS 1 Zrotation
			JOINT RightAnkle
			{
				OFFSET 0.00 -0.2449 0.00
				CHANNELS 3 Zrotation Xrotation Yrotation
				End Site
				{
					OFFSET 0.1237 -0.0542 0.0051
				}
			}
		}
	}
	JOINT LeftHip
	{
		OFFSET 0.0316 -0.0424 -0.0458
		CHANNELS 3 Zrotation Xrotation Yrotation
		JOINT LeftKnee
		{
			OFFSET 0.00 -0.2438 0.00
			CHANNELS 1 Zrotation
			JOINT LeftAnkle
			{
				OFFSET 0.00 -0.2449 0.00
				CHANNELS 3 Zrotation Xrotation Yrotation
				End Site
				{
					OFFSET 0.1237 -0.0542 -0.0051
				}
			}
		}
	}
}
MOTION
Frames: 22
Frame Time: 0.02
0.03878 -0.09615 0.63437 -36.48225 -60.66385 7.6635 -17.12932 4.03738 -3.86512 -28.41481 -18.35183 -0.83079 100.79565 3.32957 -15.89383 6.2991 80.65598 -2.38786 -5.0188 93.93308 14.44427 -52.77609 14.83823 -86.5819 -10.91416 1.24433 95.26071 -2.20521 -14.77165 -79.84658 -6.63993 -5.1578 -3.36712 119.95193 15.72354 -5.15077 -76.72748 -7.85491 3.55259 2.5537
0.03974 -0.09469 0.6343 -36.97955 -60.9184 6.9354 -17.16053 4.29361 -4.65807 -28.56495 -18.6051 -0.83079 100.53011 4.92501 -4.65419 6.9895 80.21554 -2.00491 -4.64136 94.44522 16.06463 -53.72377 14.78501 -86.60253 -10.13498 0.27101 95.04539 -2.23264 -15.26126 -79.23583 -6.59078 -5.11557 -3.34146 120.01993 15.7875 -5.31587 -76.41874 -7.85114 3.54265 2.54708
0.04068 -0.09295 0.63422 -37.57317 -61.15444 6.15868 -17.22652 4.49722 -5.50605 -28.70038 -18.84642 -0.83079 100.18198 6.55199 7.61938 7.95326 79.42844 -1.22292 -4.25959 95.00323 17.87365 -54.89591 14.64862 -86.62635 -9.28412 -0.68736 94.75471 -2.23696 -15.75276 -78.50558 -6.54175 -5.0696 -3.31467 120.00473 15.91657 -5.4195 -76.01982 -7.85999 3.52949 2.53835
0.04163 -0.09136 0.63414 -38.12063 -61.39622 5.41943 -17.27372 4.7126 -6.29804 -28.84236 -19.09483 -0.83079 99.87705 8.12397 19.05581 8.76304 78.87346 -0.65798 -3.89743 95.51688 19.55164 -55.90742 14.55438 -86.61256 -8.49189 -1.62392 94.49868 -2.25748 -16.23855 -77.83491 -6.49242 -5.02504 -3.28823 120.02321 16.01727 -5.54355 -75.66828 -7.86237 3.51853 2.5311
0.04257 -0.08968 0.63409 -38.68512 -61.65019 4.6084 -17.33376 4.98226 -7.22651 -28.98986 -19.34311 -0.83079 99.54942 9.89125 32.14381 9.68655 78.01756 0.04642 -3.46071 96.12952 21.43663 -57.15324 14.44255 -86.73843 -7.58145 -2.69214 94.23567 -2.2592 -16.75782 -77.13502 -6.44248 -4.98045 -3.26169 120.05802 16.11117 -5.70668 -75.28682 -7.86817 3.50473 2.52188
0.04353 -0.08812 0.63397 -39.23255 -61.87655 3.93878 -17.37271 5.12562 -7.88129 -29.11995 -19.585 -0.83079 99.24644 11.24475 41.99985 10.44879 77.6914 0.56077 -3.17361 96.54751 22.92825 -57.97502 14.34908 -86.58306 -6.90333 -3.47676 93.97496 -2.29235 -17.20218 -76.47124 -6.39464 -4.93567 -3.23549 120.04251 16.23405 -5.77207 -74.94708 -7.8699 3.49606 2.51621
0.0446 -0.08691 0.63367 -39.73125 -61.9973 3.66189 -17.3784 4.92816 -7.77098 -29.21191 -19.8265 -0.83079 99.06482 11.51677 42.6591 10.61962 79.02827 0.43475 -3.35997 96.41005 23.29812 -57.49975 14.30417 -85.60076 -6.88466 -3.50314 93.69147 -2.42059 -17.44657 -75.92514 -6.3507 -4.8895 -3.20942 119.86882 16.43702 -5.56858 -74.74919 -7.85508 3.50127 2.52032
0.04569 -0.08582 0.6333 -40.20446 -62.09481 3.53171 -17.35751 4.60607 -7.38217 -29.28508 -20.05837 -0.83079 98.90606 11.35787 40.01945 10.63184 80.88791 0.10736 -3.68783 96.07627 23.26111 -56.60319 14.28396 -84.34507 -7.10327 -3.24021 93.42012 -2.57997 -17.6121 -75.42289 -6.30945 -4.8438 -3.18405 119.65283 16.66451 -5.26992 -74.59661 -7.836 3.51185 2.52812
0.04676 -0.0847 0.63297 -40.67455 -62.22702 3.34149 -17.32503 4.3435 -7.11697 -29.36201 -20.28464 -0.83079 98.71396 11.34616 38.88753 10.77231 82.43253 -0.11333 -3.91145 95.83684 23.40178 -55.94849 14.26732 -83.24911 -7.21429 -3.0935 93.17685 -2.7227 -17.80756 -74.90824 -6.26841 -4.79919 -3.15911 119.48387 16.87057 -5.02321 -74.41997 -7.82038 3.52069 2.5346
0.04787 -0.08349 0.63263 -41.21107 -62.26442 3.12124 -17.38661 4.06607 -6.86483 -29.45851 -20.55328 -0.83079 98.61122 11.53326 37.75584 10.6948 84.29343 -0.38 -4.29903 95.57764 23.58144 -55.09298 14.18715 -82.00612 -7.32201 -3.0075 92.79649 -2.87555 -18.02949 -74.35574 -6.22125 -4.74882 -3.13086 119.20121 17.12173 -4.73911 -74.25228 -7.79913 3.52671 2.53964
0.04891 -0.08249 0.63229 -41.60078 -62.48439 2.99931 -17.25436 3.79183 -6.52039 -29.5102 -20.73082 -0.83079 98.33468 11.21345 35.82859 11.0179 85.62252 -0.60939 -4.38431 95.31205 23.5787 -54.54743 14.24402 -81.00089 -7.49346 -2.73075 92.69625 -3.01467 -18.17595 -73.89632 -6.18757 -4.71077 -3.1098 119.1382 17.2846 -4.50938 -74.08104 -7.788 3.53962 2.5484
0.04974 -0.082 0.63196 -41.60099 -63.29816 3.11034 -16.51561 3.54697 -5.97414 -29.44078 -20.66592 -0.83079 97.52422 9.51435 32.48759 12.58763 85.37485 -0.63778 -3.55298 95.07949 23.18882 -55.00595 14.69237 -80.75123 -7.78679 -1.96158 93.44829 -3.11071 -18.14651 -73.66428 -6.18968 -4.70515 -3.10758 119.7642 17.19219 -4.46764 -73.86218 -7.80952 3.57291 2.5682
0.0505 -0.08172 0.63165 -41.45275 -64.28206 3.31543 -15.59582 3.31166 -5.34769 -29.32761 -20.50919 -0.83079 96.54831 7.33697 28.46276 14.5442 84.57484 -0.63063 -2.42147 94.84667 22.62614 -55.78143 15.27432 -80.74525 -8.13527 -1.01768 94.46807 -3.19142 -18.04178 -73.52826 -6.20539 -4.71216 -3.11271 120.60078 17.01102 -4.48166 -73.64333 -7.84065 3.61249 2.59132
0.05129 -0.08136 0.63133 -41.36474 -65.13152 3.4802 -14.81129 3.07884 -4.7668 -29.23545 -20.38922 -0.83079 95.67927 5.43238 24.75621 16.25755 84.01295 -0.67647 -1.4583 94.61179 22.12929 -56.3811 15.78343 -80.60546 -8.45685 -0.17728 95.31066 -3.27773 -17.9623 -73.36166 -6.21545 -4.71444 -3.11508 121.29266 16.87343 -4.46058 -73.44294 -7.86488 3.64747 2.61181
0.05211 -0.08093 0.631 -41.30353 -66.21636 3.64223 -13.80719 2.81312 -4.13544 -29.13674 -20.28691 -0.83079 94.67393 3.2733 20.88721 18.25622 83.51188 -0.58243 -0.36496 94.37867 21.6683 -57.10025 16.3459 -80.54964 -8.79626 0.77649 96.38342 -3.37119 -17.91617 -73.14258 -6.22351 -4.71272 -3.11517 122.18529 16.72202 -4.47648 -73.16751 -7.89957 3.68994 2.6371
0.05284 -0.08071 0.63069 -41.15522 -66.85785 3.82736 -13.21144 2.61945 -3.59668 -29.04294 -20.12989 -0.83079 93.91704 1.54316 17.25751 19.74693 82.76081 -0.7576 0.52994 94.14515 21.10149 -57.65135 16.82693 -80.38522 -9.10623 1.52989 97.04592 -3.44536 -17.78595 -73.05354 -6.23872 -4.72204 -3.12157 122.7161 16.57926 -4.43091 -73.04604 -7.91495 3.71829 2.65319
0.05337 -0.08103 0.63043 -40.77085 -66.18107 4.07889 -13.84176 2.62618 -3.30919 -28.96118 -19.81148 -0.83079 93.85005 1.05592 14.29178 19.80853 81.32382 -1.78225 0.80754 93.90529 20.24607 -57.66123 17.06488 -79.81946 -9.34086 1.70378 96.46158 -3.47318 -17.4231 -73.31299 -6.27224 -4.76112 -3.14502 122.14786 16.47088 -4.1934 -73.36446 -7.87349 3.70581 2.64282
0.05382 -0.08156 0.63017 -40.3098 -65.06276 4.34512 -14.87888 2.70494 -3.12313 -28.88811 -19.44697 -0.83079 94.0445 1.02845 11.63569 19.33599 79.67398 -3.06136 0.87491 93.66728 19.29905 -57.49261 17.21345 -79.14415 -9.5397 1.66637 95.46469 -3.48151 -16.9822 -73.69715 -6.31212 -4.81042 -3.17429 121.21803 16.37601 -3.89431 -73.83465 -7.81253 3.67898 2.62313
0.05431 -0.08199 0.62991 -39.90513 -64.18029 4.58677 -15.69489 2.74899 -2.90835 -28.81935 -19.12564 -0.83079 94.14449 0.83299 8.96445 19.06106 78.20744 -4.15731 1.03667 93.43253 18.42181 -57.40817 17.39334 -78.54912 -9.74026 1.71221 94.6877 -3.49637 -16.5897 -74.01585 -6.34784 -4.8535 -3.19996 120.48504 16.28252 -3.62938 -74.22569 -7.76122 3.65887 2.60785
0.05479 -0.08247 0.62966 -39.4052 -63.15266 4.9064 -16.65927 2.80198 -2.61896 -28.71472 -18.70889 -0.83079 94.14017 0.45387 5.74499 18.98038 76.36527 -5.53128 1.21407 93.17921 17.42077 -57.32354 17.61718 -77.83795 -10.002 1.81449 93.78088 -3.52 -16.13969 -74.37598 -6.38942 -4.9037 -3.22993 119.61991 16.15518 -3.33979 -74.66051 -7.70675 3.63803 2.59189
0.05528 -0.08289 0.62939 -39.08638 -62.32351 5.06706 -17.41139 2.85291 -2.50798 -28.68677 -18.47905 -0.83079 94.412 0.56492 3.74037 18.37541 75.25102 -6.39447 1.30459 92.96645 16.65644 -57.19044 17.72651 -77.33419 -10.12995 1.75146 93.04595 -3.5216 -15.79222 -74.67697 -6.42011 -4.9413 -3.25222 118.94415 16.10149 -3.0868 -75.03918 -7.65432 3.61536 2.57519
0.0558 -0.08311 0.62904 -39.29565 -62.11989 4.77451 -17.4997 2.88453 -2.88419 -28.87461 -18.79512 -0.83079 95.42969 1.98706 5.1003 16.34647 76.29566 -5.72024 1.20931 92.85336 16.58417 -56.9871 17.54054 -77.47649 -9.87156 1.2419 92.85793 -3.46137 -15.74431 -74.79455 -6.41933 -4.94178 -3.25186 118.85324 16.25918 -2.94408 -75.23509 -7.61052 3.58967 2.55772
